<svg version="1.1" id="Layer_1" xmlns="http://www.w3.org/2000/svg" xmlns:xlink="http://www.w3.org/1999/xlink" x="0px" y="0px"
	 width="100%" viewBox="0 0 512 512" enable-background="new 0 0 512 512" xml:space="preserve">
<path fill="#000000" opacity="1.000000" stroke="none" 
	d="
M1.000000,195.000000 
	C1.000000,130.000000 1.000000,65.500000 1.000000,1.000000 
	C171.666672,1.000000 342.333344,1.000000 513.000000,1.000000 
	C513.000000,171.666672 513.000000,342.333344 513.000000,513.000000 
	C342.333344,513.000000 171.666672,513.000000 1.000000,513.000000 
	C1.000000,407.166656 1.000000,301.333344 1.000000,195.000000 
M454.928345,100.465118 
	C454.618225,100.284538 454.308105,100.103958 453.998199,100.001793 
	C453.998199,100.001793 454.076630,100.001686 453.928345,99.465111 
	C453.618225,99.284531 453.308105,99.103951 452.998199,99.001793 
	C452.998199,99.001793 453.076630,99.001686 452.928345,98.465118 
	C452.618225,98.284538 452.308105,98.103958 451.998199,98.001793 
	C451.998199,98.001793 452.076630,98.001686 451.928345,97.465126 
	C451.618225,97.284546 451.308105,97.103966 450.998199,97.001793 
	C450.998199,97.001793 451.076630,97.001686 450.928345,96.465103 
	C450.618225,96.284523 450.308105,96.103943 449.998199,96.001793 
	C449.998199,96.001793 450.076630,96.001686 449.928345,95.465111 
	C449.618225,95.284531 449.308105,95.103951 448.998199,95.001793 
	C448.998199,95.001793 449.076630,95.001686 448.928345,94.465118 
	C448.618225,94.284538 448.308105,94.103958 447.998199,94.001793 
	C447.998199,94.001793 448.076630,94.001686 447.928345,93.465103 
	C447.618225,93.284523 447.308105,93.103943 446.998199,93.001793 
	C446.998199,93.001793 447.076630,93.001686 446.928345,92.465111 
	C446.618225,92.284531 446.308105,92.103951 445.998199,92.001793 
	C445.998199,92.001793 446.076630,92.001686 445.928345,91.465118 
	C445.618225,91.284538 445.308105,91.103958 444.998199,91.001793 
	C444.998199,91.001793 445.076630,91.001686 444.928345,90.465103 
	C444.618225,90.284523 444.308105,90.103943 443.998199,90.001793 
	C443.998199,90.001793 444.076630,90.001686 443.928345,89.465111 
	C443.618225,89.284531 443.308105,89.103951 442.998199,89.001793 
	C442.998199,89.001793 443.076630,89.001686 442.928345,88.465118 
	C442.618225,88.284538 442.308105,88.103958 441.998199,88.001793 
	C441.998199,88.001793 442.076630,88.001686 441.928345,87.465096 
	C441.618225,87.284515 441.308105,87.103935 440.998199,87.001793 
	C440.998199,87.001793 441.076630,87.001686 440.928345,86.465103 
	C440.618225,86.284523 440.308105,86.103943 439.998199,86.001793 
	C439.998199,86.001793 440.076630,86.001686 439.928345,85.465111 
	C439.618225,85.284531 439.308105,85.103951 438.998199,85.001793 
	C438.998199,85.001793 439.076630,85.001686 438.928345,84.465111 
	C438.618225,84.284531 438.308105,84.103951 437.998199,84.001793 
	C437.998199,84.001793 438.076630,84.001686 437.928345,83.465103 
	C437.618225,83.284523 437.308105,83.103943 436.998199,83.001793 
	C436.998199,83.001793 437.076630,83.001686 436.928345,82.465111 
	C436.618225,82.284531 436.308105,82.103951 435.998199,82.001793 
	C435.998199,82.001793 436.076630,82.001686 435.928345,81.465103 
	C435.618225,81.284523 435.308105,81.103943 434.998199,81.001793 
	C434.998199,81.001793 435.076630,81.001686 434.928345,80.465103 
	C434.618225,80.284523 434.308105,80.103943 433.998199,80.001793 
	C433.998199,80.001793 434.076630,80.001686 433.928345,79.465111 
	C433.618225,79.284531 433.308105,79.103951 432.998199,79.001793 
	C432.998199,79.001793 433.076630,79.001686 432.928345,78.465103 
	C432.618225,78.284523 432.308105,78.103943 431.998199,78.001793 
	C431.998199,78.001793 432.076630,78.001686 431.928345,77.465111 
	C431.618225,77.284531 431.308105,77.103951 430.998199,77.001793 
	C430.998199,77.001793 431.076630,77.001686 430.928345,76.465103 
	C430.618225,76.284523 430.308105,76.103943 429.998199,76.001793 
	C429.998199,76.001793 430.076630,76.001686 429.928345,75.465111 
	C429.618225,75.284531 429.308105,75.103951 428.998199,75.001793 
	C428.998199,75.001793 429.076630,75.001686 428.928345,74.465111 
	C428.618225,74.284531 428.308105,74.103951 427.998199,74.001793 
	C427.998199,74.001793 428.076630,74.001686 427.928345,73.465118 
	C427.618225,73.284538 427.308105,73.103958 426.998199,73.001793 
	C426.998199,73.001793 427.076630,73.001686 426.928345,72.465111 
	C426.618225,72.284531 426.308105,72.103951 425.998199,72.001793 
	C425.998199,72.001793 426.076630,72.001686 425.928345,71.465103 
	C425.618225,71.284523 425.308105,71.103943 424.998199,71.001793 
	C424.998199,71.001793 425.076630,71.001686 424.928345,70.465111 
	C424.618225,70.284531 424.308105,70.103951 423.998199,70.001793 
	C423.998199,70.001793 424.076630,70.001686 423.928345,69.465118 
	C423.618225,69.284538 423.308105,69.103958 422.998199,69.001793 
	C422.998199,69.001793 423.076630,69.001686 422.928345,68.465118 
	C422.618225,68.284538 422.308105,68.103958 421.998199,68.001793 
	C421.998199,68.001793 422.076630,68.001686 421.928345,67.465111 
	C421.618225,67.284531 421.308105,67.103951 420.998199,67.001793 
	C420.998199,67.001793 421.076630,67.001686 420.928345,66.465118 
	C420.618225,66.284538 420.308105,66.103958 419.998199,66.001793 
	C419.998199,66.001793 420.076630,66.001686 419.928345,65.465111 
	C419.618225,65.284531 419.308105,65.103951 418.998199,65.001793 
	C418.998199,65.001793 419.076630,65.001686 418.928345,64.465118 
	C418.618225,64.284531 418.308105,64.103951 417.998169,64.001823 
	C417.998169,64.001823 418.076630,64.001694 417.928314,63.465118 
	C417.618195,63.284546 417.308075,63.103977 416.998169,63.001858 
	C416.998169,63.001858 417.076599,63.001740 416.928223,62.465237 
	C416.618103,62.284649 416.308014,62.104061 415.998108,62.001926 
	C415.998108,62.001926 416.076538,62.001804 415.928009,61.465382 
	C415.617950,61.284775 415.307892,61.104164 414.998077,61.001934 
	C414.998077,61.001934 415.076447,61.001751 414.927521,60.465229 
	C414.617065,60.285233 414.306610,60.105236 413.995514,60.004650 
	C413.995514,60.004650 414.074921,60.005402 413.921112,59.472832 
	C413.613403,59.289810 413.305664,59.106785 413.004181,58.993099 
	C413.004181,58.993099 413.073273,58.984497 412.826813,58.361893 
	C412.401733,58.285851 411.976654,58.209808 411.075989,57.614655 
	C408.202240,56.794357 405.328461,55.974060 401.579651,55.025669 
	C396.568970,54.374081 393.220367,57.392685 390.088013,60.510567 
	C370.249512,80.257622 350.499969,100.093979 330.684814,119.864540 
	C320.325836,130.200256 311.657043,141.642578 305.395020,155.007828 
	C294.805145,177.610153 292.409912,201.153854 297.275726,225.310394 
	C301.291260,245.245712 310.364868,263.133606 324.499542,277.777527 
	C344.969910,298.985321 366.175812,319.483093 387.007812,341.183685 
	C387.005280,365.339752 387.051239,389.496033 386.953369,413.651733 
	C386.936676,417.775604 386.737000,421.988586 385.885559,426.004272 
	C381.132019,448.422394 368.187378,464.976959 347.589447,474.415741 
	C327.495605,483.623566 306.403198,483.588287 285.508209,476.243744 
	C260.491516,467.450439 242.097733,441.775177 242.010788,415.818390 
	C241.652634,308.903412 241.384628,201.988068 240.932205,95.073494 
	C240.878677,82.421265 236.730057,70.526680 231.047668,59.435753 
	C220.161865,38.188805 203.514786,22.868002 181.564560,13.199340 
	C165.068787,5.933258 147.680298,4.273602 130.295181,6.406876 
	C104.625313,9.556747 83.170776,21.488914 66.713982,41.796711 
	C53.811928,57.717930 45.593597,75.839066 45.197170,96.331215 
	C44.504536,132.135040 45.018234,167.962204 44.232323,203.971359 
	C43.404331,204.002869 42.496387,203.821533 41.760387,204.097992 
	C31.380455,207.996643 22.487852,214.118073 15.714462,222.888535 
	C8.749324,231.907303 4.362608,242.227631 4.100840,253.697098 
	C3.744829,269.295837 4.101132,284.910828 4.017434,301.342590 
	C4.012843,314.839813 3.909468,328.338104 4.050625,341.833801 
	C4.109920,347.502808 5.793399,352.891693 10.945786,355.887634 
	C20.368248,361.366425 34.460072,357.664917 34.931099,342.612030 
	C35.269703,331.791199 35.023399,320.952026 35.965324,310.015961 
	C43.978554,309.955536 51.991779,309.895142 60.930046,309.977081 
	C69.243782,309.925415 77.557510,309.873749 85.797508,309.978973 
	C85.797508,309.978973 85.912079,310.109070 85.964951,311.031342 
	C85.977730,322.173615 85.938698,333.316437 86.052795,344.457672 
	C86.072487,346.380188 86.324203,348.512604 87.186218,350.176300 
	C90.404114,356.387024 98.079132,359.519989 105.058479,357.787018 
	C111.203438,356.261230 115.911308,350.294800 115.949898,343.381653 
	C116.028778,329.248901 115.893402,315.114960 115.918808,300.042511 
	C115.954674,284.133209 116.011765,268.223877 115.983002,252.314667 
	C115.980881,251.140259 115.360458,249.966949 115.014893,247.971558 
	C113.583298,232.420074 104.578812,221.237854 92.990906,212.199615 
	C87.877274,208.211136 81.036491,206.437027 75.011147,202.763718 
	C75.007393,171.935486 74.963486,141.107147 75.041855,110.279121 
	C75.054047,105.484436 75.440483,100.670891 75.965988,95.900452 
	C80.237381,57.125931 117.763824,29.799950 156.165771,37.262325 
	C187.569016,43.364697 210.998184,72.139252 210.998978,104.166565 
	C211.001495,205.316635 210.983444,306.466705 211.040909,407.616730 
	C211.044296,413.576996 211.366501,419.567017 212.012100,425.491791 
	C214.857346,451.603302 227.386246,472.689331 247.073822,489.375336 
	C271.773285,510.309082 301.530792,513.640137 332.160278,510.571655 
	C350.365326,508.747833 366.892090,501.358063 381.282562,489.488617 
	C404.575409,470.276367 416.808807,445.480652 417.822388,415.629669 
	C418.675812,390.496216 417.993195,365.310608 418.563110,339.916168 
	C419.063507,339.286804 419.563904,338.657440 420.004272,338.007843 
	C420.004272,338.007843 420.000153,338.071075 420.531830,337.921997 
	C420.711578,337.614624 420.891357,337.307251 421.000031,336.999969 
	C421.000031,336.999969 421.000153,337.071075 421.531799,336.921997 
	C421.711548,336.614594 421.891327,336.307220 422.000031,335.999969 
	C422.000031,335.999969 422.000153,336.071075 422.531799,335.921997 
	C422.711578,335.614624 422.891357,335.307220 423.000031,334.999969 
	C423.000031,334.999969 423.000153,335.071075 423.531769,334.921997 
	C423.711548,334.614594 423.891327,334.307220 424.000031,333.999969 
	C424.000031,333.999969 424.000153,334.071075 424.531799,333.921997 
	C424.711578,333.614624 424.891327,333.307220 425.000031,332.999969 
	C425.000031,332.999969 425.000153,333.071075 425.531830,332.921997 
	C425.711578,332.614624 425.891357,332.307251 426.000031,331.999969 
	C426.000031,331.999969 426.000153,332.071075 426.531769,331.921997 
	C426.711548,331.614594 426.891327,331.307220 427.000031,330.999969 
	C427.000031,330.999969 427.000153,331.071075 427.531799,330.921997 
	C427.711578,330.614624 427.891327,330.307220 428.000031,329.999969 
	C428.000031,329.999969 428.000153,330.071075 428.531830,329.921997 
	C428.711578,329.614624 428.891357,329.307251 429.000031,328.999969 
	C429.000031,328.999969 429.000153,329.071075 429.531799,328.921997 
	C429.711548,328.614624 429.891327,328.307220 430.000031,327.999969 
	C430.000031,327.999969 430.000153,328.071075 430.531799,327.921997 
	C430.711578,327.614624 430.891357,327.307251 431.000031,326.999969 
	C431.000031,326.999969 431.000153,327.071075 431.531769,326.921997 
	C431.711548,326.614594 431.891327,326.307220 432.000031,325.999969 
	C432.000031,325.999969 432.000153,326.071075 432.531799,325.921997 
	C432.711578,325.614624 432.891327,325.307220 433.000031,324.999969 
	C433.000031,324.999969 433.000153,325.071075 433.531830,324.921997 
	C433.711578,324.614624 433.891357,324.307251 434.000031,323.999969 
	C434.000031,323.999969 434.000153,324.071075 434.531799,323.921997 
	C434.711548,323.614594 434.891327,323.307220 435.000031,322.999969 
	C435.000031,322.999969 435.000153,323.071075 435.531799,322.921997 
	C435.711578,322.614624 435.891357,322.307220 436.000031,321.999969 
	C436.000031,321.999969 436.000153,322.071075 436.531769,321.921997 
	C436.711548,321.614594 436.891327,321.307220 437.000031,320.999969 
	C437.000031,320.999969 437.000153,321.071075 437.531799,320.921997 
	C437.711578,320.614624 437.891327,320.307220 438.000031,319.999969 
	C438.000031,319.999969 438.000153,320.071075 438.531830,319.921997 
	C438.711578,319.614624 438.891357,319.307251 439.000031,318.999969 
	C439.000031,318.999969 439.000153,319.071075 439.531830,318.922028 
	C439.711609,318.614624 439.891388,318.307251 440.000031,317.999969 
	C440.000031,317.999969 440.000153,318.071075 440.531799,317.921997 
	C440.711578,317.614624 440.891327,317.307220 441.000031,316.999969 
	C441.000031,316.999969 441.000153,317.071075 441.531769,316.921967 
	C441.711548,316.614594 441.891296,316.307220 442.000031,315.999969 
	C442.000031,315.999969 442.000153,316.071075 442.531799,315.921997 
	C442.711548,315.614624 442.891327,315.307220 443.000031,314.999969 
	C443.000031,314.999969 443.000153,315.071075 443.531799,314.921997 
	C443.711578,314.614624 443.891357,314.307251 444.000031,313.999969 
	C444.000031,313.999969 444.000153,314.071075 444.531830,313.922028 
	C444.711609,313.614624 444.891357,313.307251 445.000031,312.999969 
	C445.000031,312.999969 445.000153,313.071075 445.531799,312.921997 
	C445.711578,312.614624 445.891327,312.307220 446.000031,311.999969 
	C446.000031,311.999969 446.000153,312.071075 446.531769,311.921967 
	C446.711548,311.614594 446.891296,311.307220 447.000031,310.999969 
	C447.000031,310.999969 447.000153,311.071075 447.531799,310.921997 
	C447.711548,310.614594 447.891327,310.307220 448.000031,309.999969 
	C448.000031,309.999969 448.000153,310.071075 448.531799,309.921997 
	C448.711578,309.614624 448.891357,309.307220 449.000031,308.999969 
	C449.000031,308.999969 449.000153,309.071075 449.531830,308.922028 
	C449.711609,308.614624 449.891357,308.307251 450.000031,307.999969 
	C450.000031,307.999969 450.000153,308.071075 450.531799,307.921997 
	C450.711578,307.614624 450.891327,307.307220 451.000031,306.999969 
	C451.000031,306.999969 451.000153,307.071075 451.531769,306.921967 
	C451.711517,306.614594 451.891296,306.307220 452.000031,305.999969 
	C452.000031,305.999969 452.000153,306.071075 452.531769,305.921997 
	C452.711548,305.614594 452.891327,305.307220 453.000031,304.999969 
	C453.000031,304.999969 453.000153,305.071075 453.531799,304.921997 
	C453.711578,304.614624 453.891327,304.307220 454.000031,303.999969 
	C454.000031,303.999969 454.000153,304.071075 454.531830,303.921997 
	C454.711578,303.614624 454.891357,303.307251 455.000031,302.999969 
	C455.000031,302.999969 455.000153,303.071075 455.531799,302.921997 
	C455.711548,302.614624 455.891327,302.307220 456.000031,301.999969 
	C456.000031,301.999969 456.000153,302.071075 456.531799,301.921997 
	C456.711578,301.614624 456.891357,301.307251 457.000031,300.999969 
	C457.000031,300.999969 457.000153,301.071075 457.531769,300.921997 
	C457.711548,300.614594 457.891327,300.307220 458.000031,299.999969 
	C458.000031,299.999969 458.000153,300.071075 458.531799,299.921997 
	C458.711578,299.614624 458.891327,299.307220 459.000031,298.999969 
	C459.000031,298.999969 459.000153,299.071075 459.531830,298.921997 
	C459.711578,298.614624 459.891357,298.307251 460.000031,297.999969 
	C460.000031,297.999969 460.000153,298.071075 460.531799,297.921997 
	C460.711548,297.614594 460.891327,297.307220 461.000031,296.999969 
	C461.000031,296.999969 461.000153,297.071075 461.531799,296.921997 
	C461.711578,296.614624 461.891357,296.307220 462.000031,295.999969 
	C462.000031,295.999969 462.000153,296.071075 462.531769,295.921997 
	C462.711548,295.614594 462.891327,295.307220 463.000031,294.999969 
	C463.000031,294.999969 463.000153,295.071075 463.531799,294.921997 
	C463.711578,294.614624 463.891327,294.307220 464.000031,293.999969 
	C464.000031,293.999969 464.000153,294.071075 464.531830,293.921997 
	C464.711578,293.614624 464.891357,293.307251 465.000031,292.999969 
	C465.000031,292.999969 465.000153,293.071075 465.531769,292.921997 
	C465.711548,292.614594 465.891327,292.307220 466.000031,291.999969 
	C466.000031,291.999969 466.000153,292.071075 466.531799,291.921997 
	C466.711578,291.614624 466.891327,291.307220 467.000031,290.999969 
	C467.000031,290.999969 467.000153,291.071075 467.531830,290.921997 
	C467.711578,290.614624 467.891357,290.307251 468.000031,289.999969 
	C468.000031,289.999969 468.000153,290.071075 468.531799,289.921997 
	C468.711548,289.614624 468.891327,289.307220 469.000031,288.999969 
	C469.000031,288.999969 469.000153,289.071075 469.531799,288.921997 
	C469.711578,288.614624 469.891357,288.307251 470.000031,287.999969 
	C470.000031,287.999969 470.000153,288.071075 470.531769,287.921997 
	C470.711548,287.614594 470.891327,287.307220 471.000031,286.999969 
	C471.000031,286.999969 471.000153,287.071075 471.531799,286.921997 
	C471.711578,286.614624 471.891327,286.307220 472.000031,285.999969 
	C472.000031,285.999969 472.000153,286.071075 472.531830,285.921997 
	C472.711578,285.614624 472.891357,285.307251 473.000031,284.999969 
	C473.000031,284.999969 473.000153,285.071075 473.531799,284.921997 
	C473.711548,284.614594 473.891327,284.307220 474.000031,283.999969 
	C474.000031,283.999969 474.000153,284.071075 474.531799,283.921997 
	C474.711578,283.614624 474.891357,283.307220 475.000031,283.000000 
	C475.000031,283.000000 475.000183,283.071075 475.531769,282.922028 
	C475.711548,282.614655 475.891327,282.307281 476.000031,282.000000 
	C476.000031,282.000000 476.000244,282.071075 476.531769,281.922058 
	C476.711548,281.614716 476.891327,281.307373 477.000092,281.000031 
	C477.000092,281.000031 477.000153,281.071075 477.531952,280.922058 
	C477.713257,280.615112 477.894562,280.308167 478.000305,279.999329 
	C478.000305,279.999329 477.998352,280.074890 478.537292,279.931976 
	C478.717438,279.621307 478.897583,279.310608 479.000610,279.001068 
	C479.000610,279.001068 479.001862,279.078156 479.537079,278.932678 
	C479.722076,278.625732 479.907104,278.318756 480.020905,278.015137 
	C480.020905,278.015137 480.024353,278.086334 480.666595,277.861603 
	C480.880768,277.223358 481.094910,276.585114 481.872467,275.646301 
	C490.342865,267.386536 495.958405,257.277252 500.773315,246.627625 
	C506.579681,233.785172 509.428101,220.232742 509.947876,206.252060 
	C510.526733,190.681946 507.941986,175.534088 501.942535,161.102997 
	C496.707977,148.511856 490.144318,136.706802 480.043671,126.401382 
	C479.704010,125.906158 479.364349,125.410942 479.020081,124.986130 
	C479.020081,124.986130 479.090515,124.990250 478.927704,124.461281 
	C478.618744,124.282425 478.309784,124.103569 477.999908,123.999504 
	C477.999908,123.999504 478.074707,124.000282 477.927612,123.464211 
	C477.617889,123.283920 477.308197,123.103630 476.998596,123.001404 
	C476.998596,123.001404 477.076660,123.001366 476.928284,122.464951 
	C476.618256,122.284416 476.308197,122.103882 475.998383,122.001625 
	C475.998383,122.001625 476.076630,122.001541 475.928314,121.465042 
	C475.618225,121.284485 475.308136,121.103928 474.998260,121.001755 
	C474.998260,121.001755 475.076630,121.001640 474.928345,120.465073 
	C474.618225,120.284500 474.308105,120.103928 473.998169,120.001823 
	C473.998169,120.001823 474.076630,120.001678 473.928345,119.465103 
	C473.618225,119.284523 473.308105,119.103943 472.998199,119.001793 
	C472.998199,119.001793 473.076630,119.001686 472.928345,118.465103 
	C472.618225,118.284523 472.308105,118.103943 471.998199,118.001793 
	C471.998199,118.001793 472.076630,118.001686 471.928345,117.465103 
	C471.618225,117.284523 471.308105,117.103943 470.998199,117.001793 
	C470.998199,117.001793 471.076630,117.001686 470.928345,116.465111 
	C470.618225,116.284531 470.308105,116.103951 469.998199,116.001793 
	C469.998199,116.001793 470.076630,116.001686 469.928345,115.465103 
	C469.618225,115.284523 469.308105,115.103943 468.998199,115.001793 
	C468.998199,115.001793 469.076630,115.001686 468.928345,114.465111 
	C468.618225,114.284531 468.308105,114.103951 467.998199,114.001793 
	C467.998199,114.001793 468.076630,114.001686 467.928345,113.465103 
	C467.618225,113.284523 467.308105,113.103943 466.998199,113.001793 
	C466.998199,113.001793 467.076630,113.001686 466.928345,112.465111 
	C466.618225,112.284531 466.308105,112.103951 465.998199,112.001793 
	C465.998199,112.001793 466.076630,112.001686 465.928345,111.465111 
	C465.618225,111.284531 465.308105,111.103951 464.998199,111.001793 
	C464.998199,111.001793 465.076630,111.001686 464.928345,110.465118 
	C464.618225,110.284538 464.308105,110.103958 463.998199,110.001793 
	C463.998199,110.001793 464.076630,110.001686 463.928345,109.465111 
	C463.618225,109.284531 463.308105,109.103951 462.998199,109.001793 
	C462.998199,109.001793 463.076630,109.001686 462.928345,108.465103 
	C462.618225,108.284523 462.308105,108.103943 461.998199,108.001793 
	C461.998199,108.001793 462.076630,108.001686 461.928345,107.465111 
	C461.618225,107.284531 461.308105,107.103951 460.998199,107.001793 
	C460.998199,107.001793 461.076630,107.001686 460.928345,106.465111 
	C460.618225,106.284531 460.308105,106.103951 459.998199,106.001793 
	C459.998199,106.001793 460.076630,106.001686 459.928345,105.465118 
	C459.618225,105.284538 459.308105,105.103958 458.998199,105.001793 
	C458.998199,105.001793 459.076630,105.001686 458.928345,104.465111 
	C458.618225,104.284531 458.308105,104.103951 457.998199,104.001793 
	C457.998199,104.001793 458.076630,104.001686 457.928345,103.465118 
	C457.618225,103.284538 457.308105,103.103958 456.998199,103.001793 
	C456.998199,103.001793 457.076630,103.001686 456.928345,102.465111 
	C456.618225,102.284531 456.308105,102.103951 455.998199,102.001793 
	C455.998199,102.001793 456.076630,102.001686 455.928345,101.465118 
	C455.618225,101.284538 455.308105,101.103958 454.998199,101.001793 
	C454.998199,101.001793 455.076630,101.001686 454.928345,100.465118 
z"/>
<path fill="#006635" opacity="1.000000" stroke="none" 
	d="
M417.990570,340.148071 
	C417.993195,365.310608 418.675812,390.496216 417.822388,415.629669 
	C416.808807,445.480652 404.575409,470.276367 381.282562,489.488617 
	C366.892090,501.358063 350.365326,508.747833 332.160278,510.571655 
	C301.530792,513.640137 271.773285,510.309082 247.073822,489.375336 
	C227.386246,472.689331 214.857346,451.603302 212.012100,425.491791 
	C211.366501,419.567017 211.044296,413.576996 211.040909,407.616730 
	C210.983444,306.466705 211.001495,205.316635 210.998978,104.166565 
	C210.998184,72.139252 187.569016,43.364697 156.165771,37.262325 
	C117.763824,29.799950 80.237381,57.125931 75.965988,95.900452 
	C75.440483,100.670891 75.054047,105.484436 75.041855,110.279121 
	C74.963486,141.107147 75.007393,171.935486 74.625473,203.116028 
	C69.508759,203.015060 64.777710,202.561798 59.605392,202.041428 
	C54.451546,202.576080 49.738979,203.177841 45.026413,203.779602 
	C45.018234,167.962204 44.504536,132.135040 45.197170,96.331215 
	C45.593597,75.839066 53.811928,57.717930 66.713982,41.796711 
	C83.170776,21.488914 104.625313,9.556747 130.295181,6.406876 
	C147.680298,4.273602 165.068787,5.933258 181.564560,13.199340 
	C203.514786,22.868002 220.161865,38.188805 231.047668,59.435753 
	C236.730057,70.526680 240.878677,82.421265 240.932205,95.073494 
	C241.384628,201.988068 241.652634,308.903412 242.010788,415.818390 
	C242.097733,441.775177 260.491516,467.450439 285.508209,476.243744 
	C306.403198,483.588287 327.495605,483.623566 347.589447,474.415741 
	C368.187378,464.976959 381.132019,448.422394 385.885559,426.004272 
	C386.737000,421.988586 386.936676,417.775604 386.953369,413.651733 
	C387.051239,389.496033 387.005280,365.339752 387.218201,340.680939 
	C387.428589,340.178192 387.805359,340.167206 387.984833,340.454224 
	C392.381104,344.521149 395.723480,349.893158 403.060791,348.714142 
	C409.573853,348.229095 413.282074,344.074219 417.180817,339.851379 
	C417.422363,339.860931 417.896179,339.765686 417.959106,339.851562 
	C418.022034,339.937469 417.990570,340.148071 417.990570,340.148071 
z"/>
<path fill="#01C471" opacity="1.000000" stroke="none" 
	d="
M416.939270,339.841797 
	C413.282074,344.074219 409.573853,348.229095 403.021912,348.266479 
	C402.577698,274.197083 402.569397,200.582291 402.535736,126.967506 
	C402.534607,124.483719 402.278168,122.000053 402.248322,119.089035 
	C402.388855,97.492409 402.421783,76.323082 402.454712,55.153759 
	C405.328461,55.974060 408.202240,56.794357 411.526123,58.087517 
	C412.341949,58.701752 412.707611,58.843128 413.073273,58.984501 
	C413.073273,58.984497 413.004181,58.993099 413.120850,59.192333 
	C413.516663,59.596180 413.795776,59.800793 414.074921,60.005402 
	C414.074921,60.005402 413.995514,60.004650 414.110718,60.202843 
	C414.509430,60.601273 414.792938,60.801514 415.076447,61.001755 
	C415.076447,61.001751 414.998077,61.001934 415.112396,61.200897 
	C415.509979,61.600506 415.793274,61.801155 416.076538,62.001801 
	C416.076538,62.001804 415.998108,62.001926 416.112396,62.200893 
	C416.509979,62.600487 416.793304,62.801113 417.076599,63.001740 
	C417.076599,63.001740 416.998169,63.001858 417.112396,63.200874 
	C417.509949,63.600494 417.793304,63.801094 418.076630,64.001694 
	C418.076630,64.001694 417.998169,64.001823 418.112396,64.200851 
	C418.509949,64.600487 418.793304,64.801094 419.076630,65.001694 
	C419.076630,65.001686 418.998199,65.001793 419.112396,65.200851 
	C419.509949,65.600494 419.793274,65.801086 420.076630,66.001686 
	C420.076630,66.001686 419.998199,66.001793 420.112396,66.200851 
	C420.509949,66.600502 420.793274,66.801102 421.076630,67.001694 
	C421.076630,67.001686 420.998199,67.001793 421.112396,67.200844 
	C421.509949,67.600487 421.793304,67.801079 422.076630,68.001678 
	C422.076630,68.001686 421.998199,68.001793 422.112396,68.200851 
	C422.509949,68.600494 422.793274,68.801086 423.076630,69.001686 
	C423.076630,69.001686 422.998199,69.001793 423.112396,69.200851 
	C423.509949,69.600502 423.793274,69.801102 424.076630,70.001694 
	C424.076630,70.001686 423.998199,70.001793 424.112396,70.200844 
	C424.509949,70.600487 424.793304,70.801079 425.076630,71.001678 
	C425.076630,71.001686 424.998199,71.001793 425.112396,71.200851 
	C425.509949,71.600494 425.793274,71.801086 426.076630,72.001686 
	C426.076630,72.001686 425.998199,72.001793 426.112396,72.200851 
	C426.509949,72.600502 426.793274,72.801102 427.076630,73.001694 
	C427.076630,73.001686 426.998199,73.001793 427.112396,73.200851 
	C427.509949,73.600502 427.793274,73.801094 428.076630,74.001686 
	C428.076630,74.001686 427.998199,74.001793 428.112396,74.200851 
	C428.509949,74.600494 428.793274,74.801086 429.076630,75.001686 
	C429.076630,75.001686 428.998199,75.001793 429.112396,75.200851 
	C429.509949,75.600502 429.793274,75.801102 430.076630,76.001694 
	C430.076630,76.001686 429.998199,76.001793 430.112396,76.200851 
	C430.509949,76.600502 430.793274,76.801094 431.076630,77.001686 
	C431.076630,77.001686 430.998199,77.001793 431.112396,77.200851 
	C431.509949,77.600494 431.793274,77.801086 432.076630,78.001686 
	C432.076630,78.001686 431.998199,78.001793 432.112396,78.200851 
	C432.509949,78.600502 432.793274,78.801094 433.076630,79.001694 
	C433.076630,79.001686 432.998199,79.001793 433.112396,79.200851 
	C433.509949,79.600502 433.793274,79.801094 434.076630,80.001686 
	C434.076630,80.001686 433.998199,80.001793 434.112396,80.200851 
	C434.509949,80.600494 434.793274,80.801086 435.076630,81.001686 
	C435.076630,81.001686 434.998199,81.001793 435.112396,81.200851 
	C435.509949,81.600502 435.793274,81.801094 436.076630,82.001694 
	C436.076630,82.001686 435.998199,82.001793 436.112396,82.200851 
	C436.509949,82.600502 436.793274,82.801094 437.076630,83.001686 
	C437.076630,83.001686 436.998199,83.001793 437.112396,83.200851 
	C437.509949,83.600494 437.793274,83.801086 438.076630,84.001686 
	C438.076630,84.001686 437.998199,84.001793 438.112396,84.200851 
	C438.509949,84.600502 438.793274,84.801094 439.076630,85.001694 
	C439.076630,85.001686 438.998199,85.001793 439.112396,85.200851 
	C439.509949,85.600502 439.793274,85.801094 440.076630,86.001686 
	C440.076630,86.001686 439.998199,86.001793 440.112396,86.200851 
	C440.509949,86.600494 440.793274,86.801086 441.076630,87.001686 
	C441.076630,87.001686 440.998199,87.001793 441.112396,87.200844 
	C441.509949,87.600487 441.793274,87.801086 442.076630,88.001678 
	C442.076630,88.001686 441.998199,88.001793 442.112396,88.200851 
	C442.509949,88.600502 442.793274,88.801094 443.076630,89.001686 
	C443.076630,89.001686 442.998199,89.001793 443.112396,89.200851 
	C443.509949,89.600494 443.793274,89.801086 444.076630,90.001686 
	C444.076630,90.001686 443.998199,90.001793 444.112396,90.200851 
	C444.509949,90.600502 444.793274,90.801094 445.076630,91.001694 
	C445.076630,91.001686 444.998199,91.001793 445.112396,91.200851 
	C445.509949,91.600502 445.793274,91.801094 446.076630,92.001686 
	C446.076630,92.001686 445.998199,92.001793 446.112396,92.200851 
	C446.509949,92.600494 446.793274,92.801086 447.076630,93.001686 
	C447.076630,93.001686 446.998199,93.001793 447.112396,93.200851 
	C447.509949,93.600502 447.793274,93.801094 448.076630,94.001694 
	C448.076630,94.001686 447.998199,94.001793 448.112396,94.200844 
	C448.509949,94.600487 448.793304,94.801079 449.076630,95.001678 
	C449.076630,95.001686 448.998199,95.001793 449.112396,95.200851 
	C449.509949,95.600494 449.793274,95.801086 450.076630,96.001686 
	C450.076630,96.001686 449.998199,96.001793 450.112396,96.200851 
	C450.509949,96.600502 450.793274,96.801094 451.076630,97.001694 
	C451.076630,97.001686 450.998199,97.001793 451.112396,97.200844 
	C451.509949,97.600487 451.793304,97.801079 452.076630,98.001678 
	C452.076630,98.001686 451.998199,98.001793 452.112396,98.200836 
	C452.509949,98.600479 452.793304,98.801079 453.076630,99.001678 
	C453.076630,99.001686 452.998199,99.001793 453.112396,99.200851 
	C453.509949,99.600502 453.793274,99.801094 454.076630,100.001694 
	C454.076630,100.001686 453.998199,100.001793 454.112396,100.200844 
	C454.509949,100.600487 454.793304,100.801079 455.076630,101.001678 
	C455.076630,101.001686 454.998199,101.001793 455.112396,101.200851 
	C455.509918,101.600510 455.793274,101.801102 456.076630,102.001694 
	C456.076630,102.001686 455.998199,102.001793 456.112396,102.200851 
	C456.509949,102.600502 456.793274,102.801094 457.076630,103.001694 
	C457.076630,103.001686 456.998199,103.001793 457.112396,103.200844 
	C457.509949,103.600487 457.793304,103.801079 458.076630,104.001678 
	C458.076630,104.001686 457.998199,104.001793 458.112396,104.200851 
	C458.509918,104.600510 458.793274,104.801102 459.076630,105.001694 
	C459.076630,105.001686 458.998199,105.001793 459.112396,105.200851 
	C459.509949,105.600502 459.793274,105.801094 460.076630,106.001694 
	C460.076630,106.001686 459.998199,106.001793 460.112396,106.200844 
	C460.509949,106.600487 460.793304,106.801079 461.076630,107.001678 
	C461.076630,107.001686 460.998199,107.001793 461.112396,107.200851 
	C461.509918,107.600510 461.793274,107.801102 462.076630,108.001694 
	C462.076630,108.001686 461.998199,108.001793 462.112396,108.200851 
	C462.509949,108.600502 462.793274,108.801094 463.076630,109.001694 
	C463.076630,109.001686 462.998199,109.001793 463.112396,109.200844 
	C463.509949,109.600487 463.793304,109.801079 464.076630,110.001678 
	C464.076630,110.001686 463.998199,110.001793 464.112396,110.200851 
	C464.509918,110.600510 464.793274,110.801102 465.076630,111.001694 
	C465.076630,111.001686 464.998199,111.001793 465.112396,111.200851 
	C465.509949,111.600502 465.793274,111.801094 466.076630,112.001694 
	C466.076630,112.001686 465.998199,112.001793 466.112396,112.200844 
	C466.509949,112.600487 466.793304,112.801079 467.076630,113.001678 
	C467.076630,113.001686 466.998199,113.001793 467.112396,113.200851 
	C467.509918,113.600510 467.793274,113.801102 468.076630,114.001694 
	C468.076630,114.001686 467.998199,114.001793 468.112396,114.200851 
	C468.509949,114.600502 468.793274,114.801094 469.076630,115.001694 
	C469.076630,115.001686 468.998199,115.001793 469.112396,115.200836 
	C469.509949,115.600487 469.793304,115.801079 470.076630,116.001678 
	C470.076630,116.001686 469.998199,116.001793 470.112396,116.200851 
	C470.509949,116.600494 470.793274,116.801086 471.076630,117.001686 
	C471.076630,117.001686 470.998199,117.001793 471.112396,117.200851 
	C471.509949,117.600502 471.793274,117.801094 472.076630,118.001694 
	C472.076630,118.001686 471.998199,118.001793 472.112396,118.200836 
	C472.509949,118.600487 472.793304,118.801079 473.076630,119.001678 
	C473.076630,119.001686 472.998199,119.001793 473.112427,119.200836 
	C473.509949,119.600479 473.793304,119.801079 474.076630,120.001678 
	C474.076630,120.001678 473.998169,120.001823 474.112366,120.200874 
	C474.509949,120.600502 474.793274,120.801071 475.076630,121.001640 
	C475.076630,121.001640 474.998260,121.001755 475.112335,121.200905 
	C475.509827,121.600548 475.793213,121.801048 476.076630,122.001541 
	C476.076630,122.001541 475.998383,122.001625 476.112244,122.200974 
	C476.509583,122.600677 476.793121,122.801025 477.076660,123.001373 
	C477.076660,123.001366 476.998596,123.001404 477.111694,123.200989 
	C477.508118,123.600479 477.791412,123.800385 478.074707,124.000290 
	C478.074707,124.000282 477.999908,123.999504 478.108795,124.205734 
	C478.508636,124.604713 478.799591,124.797478 479.090515,124.990250 
	C479.090515,124.990250 479.020081,124.986130 479.080688,125.259445 
	C479.516266,126.035873 479.891235,126.538986 480.266235,127.042091 
	C490.144318,136.706802 496.707977,148.511856 501.942535,161.102997 
	C507.941986,175.534088 510.526733,190.681946 509.947876,206.252060 
	C509.428101,220.232742 506.579681,233.785172 500.773315,246.627625 
	C495.958405,257.277252 490.342865,267.386536 481.372864,276.034973 
	C480.590271,276.977905 480.307312,277.532135 480.024353,278.086334 
	C480.024353,278.086334 480.020905,278.015137 479.808411,278.113739 
	C479.397888,278.500946 479.199860,278.789551 479.001831,279.078125 
	C479.001862,279.078156 479.000610,279.001068 478.798828,279.111420 
	C478.397461,279.506134 478.197937,279.790527 477.998352,280.074890 
	C477.998352,280.074890 478.000305,279.999329 477.792542,280.102844 
	C477.389893,280.494568 477.195038,280.782837 477.000153,281.071075 
	C477.000153,281.071075 477.000092,281.000031 476.790680,281.102905 
	C476.387573,281.494202 476.193909,281.782623 476.000244,282.071075 
	C476.000244,282.071075 476.000031,282.000000 475.790771,282.103027 
	C475.387726,282.494415 475.193970,282.782745 475.000183,283.071075 
	C475.000183,283.071075 475.000031,283.000000 474.790771,283.103088 
	C474.387756,283.494476 474.193939,283.782776 474.000122,284.071075 
	C474.000153,284.071075 474.000031,283.999969 473.790802,284.103088 
	C473.387787,284.494476 473.193970,284.782776 473.000153,285.071075 
	C473.000153,285.071075 473.000031,284.999969 472.790802,285.103088 
	C472.387756,285.494476 472.193939,285.782776 472.000153,286.071075 
	C472.000153,286.071075 472.000031,285.999969 471.790833,286.103088 
	C471.387787,286.494507 471.193970,286.782806 471.000183,287.071106 
	C471.000153,287.071075 471.000031,286.999969 470.790802,287.103088 
	C470.387756,287.494476 470.193970,287.782776 470.000153,288.071075 
	C470.000153,288.071075 470.000031,287.999969 469.790833,288.103088 
	C469.387787,288.494507 469.194000,288.782806 469.000183,289.071106 
	C469.000153,289.071075 469.000031,288.999969 468.790771,289.103058 
	C468.387726,289.494446 468.193939,289.782745 468.000122,290.071045 
	C468.000153,290.071075 468.000031,289.999969 467.790802,290.103088 
	C467.387756,290.494476 467.193970,290.782776 467.000153,291.071075 
	C467.000153,291.071075 467.000031,290.999969 466.790771,291.103058 
	C466.387756,291.494446 466.193939,291.782745 466.000122,292.071045 
	C466.000153,292.071075 466.000031,291.999969 465.790802,292.103088 
	C465.387787,292.494476 465.193970,292.782776 465.000153,293.071075 
	C465.000153,293.071075 465.000031,292.999969 464.790802,293.103088 
	C464.387756,293.494476 464.193939,293.782776 464.000153,294.071075 
	C464.000153,294.071075 464.000031,293.999969 463.790833,294.103088 
	C463.387787,294.494476 463.193970,294.782776 463.000183,295.071075 
	C463.000153,295.071075 463.000031,294.999969 462.790802,295.103088 
	C462.387756,295.494476 462.193970,295.782776 462.000153,296.071075 
	C462.000153,296.071075 462.000031,295.999969 461.790771,296.103058 
	C461.387756,296.494446 461.193939,296.782745 461.000122,297.071045 
	C461.000153,297.071075 461.000031,296.999969 460.790802,297.103088 
	C460.387787,297.494476 460.193970,297.782776 460.000153,298.071075 
	C460.000153,298.071075 460.000031,297.999969 459.790802,298.103088 
	C459.387756,298.494476 459.193939,298.782776 459.000153,299.071075 
	C459.000153,299.071075 459.000031,298.999969 458.790833,299.103088 
	C458.387787,299.494476 458.193970,299.782776 458.000183,300.071075 
	C458.000153,300.071075 458.000031,299.999969 457.790802,300.103088 
	C457.387756,300.494476 457.193970,300.782776 457.000153,301.071075 
	C457.000153,301.071075 457.000031,300.999969 456.790833,301.103088 
	C456.387787,301.494507 456.194000,301.782806 456.000183,302.071106 
	C456.000153,302.071075 456.000031,301.999969 455.790802,302.103088 
	C455.387787,302.494476 455.193970,302.782776 455.000153,303.071075 
	C455.000153,303.071075 455.000031,302.999969 454.790802,303.103088 
	C454.387756,303.494476 454.193939,303.782776 454.000153,304.071075 
	C454.000153,304.071075 454.000031,303.999969 453.790833,304.103088 
	C453.387787,304.494476 453.193970,304.782776 453.000183,305.071075 
	C453.000153,305.071075 453.000031,304.999969 452.790802,305.103088 
	C452.387756,305.494476 452.193970,305.782776 452.000153,306.071075 
	C452.000153,306.071075 452.000031,305.999969 451.790771,306.103088 
	C451.387756,306.494476 451.193939,306.782776 451.000122,307.071075 
	C451.000153,307.071075 451.000031,306.999969 450.790802,307.103088 
	C450.387787,307.494476 450.193970,307.782776 450.000153,308.071075 
	C450.000153,308.071075 450.000031,307.999969 449.790802,308.103088 
	C449.387756,308.494476 449.193939,308.782776 449.000153,309.071075 
	C449.000153,309.071075 449.000031,308.999969 448.790771,309.103058 
	C448.387726,309.494446 448.193939,309.782745 448.000122,310.071045 
	C448.000153,310.071075 448.000031,309.999969 447.790802,310.103088 
	C447.387756,310.494476 447.193970,310.782776 447.000153,311.071075 
	C447.000153,311.071075 447.000031,310.999969 446.790833,311.103088 
	C446.387787,311.494507 446.194000,311.782806 446.000183,312.071106 
	C446.000153,312.071075 446.000031,311.999969 445.790802,312.103088 
	C445.387787,312.494476 445.193970,312.782776 445.000153,313.071075 
	C445.000153,313.071075 445.000031,312.999969 444.790802,313.103088 
	C444.387756,313.494476 444.193939,313.782776 444.000153,314.071075 
	C444.000153,314.071075 444.000031,313.999969 443.790833,314.103088 
	C443.387787,314.494476 443.193970,314.782776 443.000183,315.071075 
	C443.000153,315.071075 443.000031,314.999969 442.790802,315.103088 
	C442.387756,315.494476 442.193970,315.782776 442.000153,316.071075 
	C442.000153,316.071075 442.000031,315.999969 441.790771,316.103088 
	C441.387756,316.494476 441.193939,316.782776 441.000122,317.071075 
	C441.000153,317.071075 441.000031,316.999969 440.790802,317.103088 
	C440.387787,317.494476 440.193970,317.782776 440.000153,318.071075 
	C440.000153,318.071075 440.000031,317.999969 439.790802,318.103088 
	C439.387756,318.494476 439.193939,318.782776 439.000153,319.071075 
	C439.000153,319.071075 439.000031,318.999969 438.790771,319.103058 
	C438.387726,319.494446 438.193939,319.782745 438.000122,320.071045 
	C438.000153,320.071075 438.000031,319.999969 437.790802,320.103088 
	C437.387756,320.494476 437.193970,320.782776 437.000153,321.071075 
	C437.000153,321.071075 437.000031,320.999969 436.790771,321.103088 
	C436.387756,321.494476 436.193939,321.782776 436.000122,322.071075 
	C436.000153,322.071075 436.000031,321.999969 435.790802,322.103088 
	C435.387787,322.494476 435.193970,322.782776 435.000153,323.071075 
	C435.000153,323.071075 435.000031,322.999969 434.790802,323.103088 
	C434.387756,323.494476 434.193939,323.782776 434.000153,324.071075 
	C434.000153,324.071075 434.000031,323.999969 433.790833,324.103088 
	C433.387787,324.494507 433.193970,324.782806 433.000183,325.071106 
	C433.000153,325.071075 433.000031,324.999969 432.790802,325.103088 
	C432.387756,325.494476 432.193970,325.782776 432.000153,326.071075 
	C432.000153,326.071075 432.000031,325.999969 431.790771,326.103088 
	C431.387756,326.494476 431.193939,326.782776 431.000122,327.071075 
	C431.000153,327.071075 431.000031,326.999969 430.790802,327.103088 
	C430.387787,327.494476 430.193970,327.782776 430.000153,328.071075 
	C430.000153,328.071075 430.000031,327.999969 429.790802,328.103088 
	C429.387756,328.494476 429.193939,328.782776 429.000153,329.071075 
	C429.000153,329.071075 429.000031,328.999969 428.790771,329.103058 
	C428.387726,329.494446 428.193939,329.782745 428.000122,330.071045 
	C428.000153,330.071075 428.000031,329.999969 427.790802,330.103088 
	C427.387756,330.494476 427.193970,330.782776 427.000153,331.071075 
	C427.000153,331.071075 427.000031,330.999969 426.790833,331.103088 
	C426.387787,331.494507 426.194000,331.782806 426.000183,332.071106 
	C426.000153,332.071075 426.000031,331.999969 425.790802,332.103088 
	C425.387787,332.494476 425.193970,332.782776 425.000153,333.071075 
	C425.000153,333.071075 425.000031,332.999969 424.790802,333.103088 
	C424.387756,333.494476 424.193939,333.782776 424.000153,334.071075 
	C424.000153,334.071075 424.000031,333.999969 423.790833,334.103088 
	C423.387787,334.494507 423.194000,334.782806 423.000183,335.071106 
	C423.000153,335.071075 423.000031,334.999969 422.790802,335.103088 
	C422.387787,335.494476 422.193970,335.782776 422.000153,336.071075 
	C422.000153,336.071075 422.000031,335.999969 421.790802,336.103088 
	C421.387756,336.494476 421.193939,336.782776 421.000153,337.071075 
	C421.000153,337.071075 421.000031,336.999969 420.790833,337.103088 
	C420.387787,337.494476 420.193970,337.782776 420.000183,338.071075 
	C420.000153,338.071075 420.004272,338.007843 419.692139,337.997131 
	C418.927765,338.052307 418.475464,338.118225 418.014404,337.698120 
	C418.005585,299.337097 418.005585,261.462097 418.005585,223.587082 
	C417.650146,223.588409 417.294708,223.589737 416.939270,223.591080 
	C416.939270,262.341309 416.939270,301.091553 416.939270,339.841797 
M416.957886,146.516907 
	C416.957886,156.880539 416.957886,167.244156 416.957886,177.607788 
	C417.174683,177.602966 417.391479,177.598160 417.608276,177.593338 
	C417.608276,163.265366 417.608276,148.937378 417.608276,134.609406 
	C417.391388,134.609848 417.174530,134.610291 416.957642,134.610718 
	C416.957642,138.249695 416.957642,141.888672 416.957886,146.516907 
z"/>
<path fill="#BEE75E" opacity="1.000000" stroke="none" 
	d="
M402.017151,55.089714 
	C402.421783,76.323082 402.388855,97.492409 401.837891,119.149292 
	C392.020508,121.369568 387.856659,126.261154 387.799561,135.807419 
	C387.725800,148.136200 387.790100,160.465790 387.754547,172.794907 
	C387.749542,174.531723 387.515778,176.267899 387.274261,179.547501 
	C382.385864,174.688156 378.554291,170.850052 374.690399,167.044739 
	C367.340057,159.805725 358.470917,159.336456 352.130005,165.826950 
	C346.132782,171.965637 346.708099,181.089844 353.640991,188.069656 
	C363.855988,198.353714 374.229004,208.483582 384.289764,218.915359 
	C386.062988,220.753952 387.607697,223.742020 387.622009,226.208755 
	C387.842804,264.193970 387.792633,302.180786 387.805359,340.167206 
	C387.805359,340.167206 387.428589,340.178192 387.248260,340.230957 
	C366.175812,319.483093 344.969910,298.985321 324.499542,277.777527 
	C310.364868,263.133606 301.291260,245.245712 297.275726,225.310394 
	C292.409912,201.153854 294.805145,177.610153 305.395020,155.007828 
	C311.657043,141.642578 320.325836,130.200256 330.684814,119.864540 
	C350.499969,100.093979 370.249512,80.257622 390.088013,60.510567 
	C393.220367,57.392685 396.568970,54.374081 402.017151,55.089714 
z"/>
<path fill="#BEE75E" opacity="1.000000" stroke="none" 
	d="
M44.629368,203.875488 
	C49.738979,203.177841 54.451546,202.576080 59.594635,202.502838 
	C60.070965,238.332138 60.116776,273.632904 60.116325,309.157745 
	C60.070061,309.381805 60.005009,309.834717 60.005009,309.834717 
	C51.991779,309.895142 43.978554,309.955536 35.115623,309.910278 
	C29.324867,309.680145 24.358023,309.181122 19.448816,309.519165 
	C12.105085,310.024841 6.994515,307.357452 4.151968,300.518860 
	C4.101132,284.910828 3.744829,269.295837 4.100840,253.697098 
	C4.362608,242.227631 8.749324,231.907303 15.714462,222.888535 
	C22.487852,214.118073 31.380455,207.996643 41.760387,204.097992 
	C42.496387,203.821533 43.404331,204.002869 44.629368,203.875488 
z"/>
<path fill="#9BDA06" opacity="1.000000" stroke="none" 
	d="
M60.162586,308.933685 
	C60.116776,273.632904 60.070965,238.332138 60.035912,202.569946 
	C64.777710,202.561798 69.508759,203.015060 74.609818,203.562973 
	C81.036491,206.437027 87.877274,208.211136 92.990906,212.199615 
	C104.578812,221.237854 113.583298,232.420074 115.009361,248.865723 
	C115.032585,266.895966 115.061340,284.032043 115.064468,301.520966 
	C113.001312,307.803101 108.282265,309.478821 102.643700,309.653259 
	C97.067131,309.825745 91.489334,309.958771 85.912079,310.109070 
	C85.912079,310.109070 85.797508,309.978973 85.469589,309.744324 
	C76.815315,309.317688 68.488953,309.125702 60.162586,308.933685 
z"/>
<path fill="#019A54" opacity="1.000000" stroke="none" 
	d="
M4.084701,300.930725 
	C6.994515,307.357452 12.105085,310.024841 19.448816,309.519165 
	C24.358023,309.181122 29.324867,309.680145 34.651970,309.962799 
	C35.023399,320.952026 35.269703,331.791199 34.931099,342.612030 
	C34.460072,357.664917 20.368248,361.366425 10.945786,355.887634 
	C5.793399,352.891693 4.109920,347.502808 4.050625,341.833801 
	C3.909468,328.338104 4.012843,314.839813 4.084701,300.930725 
z"/>
<path fill="#006635" opacity="1.000000" stroke="none" 
	d="
M85.938515,310.570221 
	C91.489334,309.958771 97.067131,309.825745 102.643700,309.653259 
	C108.282265,309.478821 113.001312,307.803101 115.252647,301.471313 
	C115.466461,301.068787 115.846260,300.981506 115.846260,300.981506 
	C115.893402,315.114960 116.028778,329.248901 115.949898,343.381653 
	C115.911308,350.294800 111.203438,356.261230 105.058479,357.787018 
	C98.079132,359.519989 90.404114,356.387024 87.186218,350.176300 
	C86.324203,348.512604 86.072487,346.380188 86.052795,344.457672 
	C85.938698,333.316437 85.977730,322.173615 85.938515,310.570221 
z"/>
<path fill="#9CD721" opacity="1.000000" stroke="none" 
	d="
M115.882538,300.512024 
	C115.846260,300.981506 115.466461,301.068787 115.278275,301.118469 
	C115.061340,284.032043 115.032585,266.895966 115.015656,249.276505 
	C115.360458,249.966949 115.980881,251.140259 115.983002,252.314667 
	C116.011765,268.223877 115.954674,284.133209 115.882538,300.512024 
z"/>
<path fill="#A6DE1F" opacity="1.000000" stroke="none" 
	d="
M60.116325,309.157745 
	C68.488953,309.125702 76.815315,309.317688 85.506462,309.665894 
	C77.557510,309.873749 69.243782,309.925415 60.467529,309.905884 
	C60.005009,309.834717 60.070061,309.381805 60.116325,309.157745 
z"/>
<path fill="#46D46A" opacity="1.000000" stroke="none" 
	d="
M418.023193,338.184143 
	C418.475464,338.118225 418.927765,338.052307 419.722168,338.007263 
	C419.563904,338.657440 419.063507,339.286804 418.276855,340.032104 
	C417.990570,340.148071 418.022034,339.937469 417.988586,339.587677 
	C417.977814,338.886627 418.000519,338.535400 418.023193,338.184143 
z"/>
<path fill="#46D46A" opacity="1.000000" stroke="none" 
	d="
M480.345490,277.973969 
	C480.307312,277.532135 480.590271,276.977905 481.091156,276.185272 
	C481.094910,276.585114 480.880768,277.223358 480.345490,277.973969 
z"/>
<path fill="#43D66E" opacity="1.000000" stroke="none" 
	d="
M480.154968,126.721741 
	C479.891235,126.538986 479.516266,126.035873 479.082977,125.224243 
	C479.364349,125.410942 479.704010,125.906158 480.154968,126.721741 
z"/>
<path fill="#46D46A" opacity="1.000000" stroke="none" 
	d="
M462.265961,295.996521 
	C462.193970,295.782776 462.387756,295.494476 462.826324,295.103027 
	C462.891327,295.307220 462.711548,295.614594 462.265961,295.996521 
z"/>
<path fill="#46D46A" opacity="1.000000" stroke="none" 
	d="
M465.265961,292.996521 
	C465.193970,292.782776 465.387787,292.494476 465.826324,292.103027 
	C465.891327,292.307220 465.711548,292.614594 465.265961,292.996521 
z"/>
<path fill="#46D46A" opacity="1.000000" stroke="none" 
	d="
M461.265961,296.996521 
	C461.193939,296.782745 461.387756,296.494446 461.826324,296.102997 
	C461.891357,296.307220 461.711578,296.614624 461.265961,296.996521 
z"/>
<path fill="#46D46A" opacity="1.000000" stroke="none" 
	d="
M460.265991,297.996521 
	C460.193970,297.782776 460.387787,297.494476 460.826355,297.103027 
	C460.891327,297.307220 460.711548,297.614594 460.265991,297.996521 
z"/>
<path fill="#46D46A" opacity="1.000000" stroke="none" 
	d="
M459.265991,298.996521 
	C459.193939,298.782776 459.387756,298.494476 459.826355,298.103027 
	C459.891357,298.307251 459.711578,298.614624 459.265991,298.996521 
z"/>
<path fill="#46D46A" opacity="1.000000" stroke="none" 
	d="
M458.265991,299.996521 
	C458.193970,299.782776 458.387787,299.494476 458.826355,299.103027 
	C458.891327,299.307220 458.711578,299.614624 458.265991,299.996521 
z"/>
<path fill="#43D66E" opacity="1.000000" stroke="none" 
	d="
M415.001984,60.733490 
	C414.792938,60.801514 414.509430,60.601273 414.111053,60.163136 
	C414.306610,60.105236 414.617065,60.285233 415.001984,60.733490 
z"/>
<path fill="#46D46A" opacity="1.000000" stroke="none" 
	d="
M457.265961,300.996521 
	C457.193970,300.782776 457.387756,300.494476 457.826324,300.103027 
	C457.891327,300.307220 457.711548,300.614594 457.265961,300.996521 
z"/>
<path fill="#43D66E" opacity="1.000000" stroke="none" 
	d="
M413.998016,59.739120 
	C413.795776,59.800793 413.516663,59.596180 413.117737,59.157665 
	C413.305664,59.106785 413.613403,59.289810 413.998016,59.739120 
z"/>
<path fill="#46D46A" opacity="1.000000" stroke="none" 
	d="
M456.265991,301.996552 
	C456.194000,301.782806 456.387787,301.494507 456.826355,301.103027 
	C456.891357,301.307251 456.711578,301.614624 456.265991,301.996552 
z"/>
<path fill="#46D46A" opacity="1.000000" stroke="none" 
	d="
M455.265991,302.996521 
	C455.193970,302.782776 455.387787,302.494476 455.826355,302.103027 
	C455.891327,302.307220 455.711548,302.614624 455.265991,302.996521 
z"/>
<path fill="#46D46A" opacity="1.000000" stroke="none" 
	d="
M454.265991,303.996521 
	C454.193939,303.782776 454.387756,303.494476 454.826355,303.103027 
	C454.891357,303.307251 454.711578,303.614624 454.265991,303.996521 
z"/>
<path fill="#46D46A" opacity="1.000000" stroke="none" 
	d="
M453.265991,304.996521 
	C453.193970,304.782776 453.387787,304.494476 453.826355,304.103027 
	C453.891327,304.307220 453.711578,304.614624 453.265991,304.996521 
z"/>
<path fill="#46D46A" opacity="1.000000" stroke="none" 
	d="
M452.265961,305.996521 
	C452.193970,305.782776 452.387756,305.494476 452.826324,305.103027 
	C452.891327,305.307220 452.711548,305.614594 452.265961,305.996521 
z"/>
<path fill="#46D46A" opacity="1.000000" stroke="none" 
	d="
M451.265930,306.996521 
	C451.193939,306.782776 451.387756,306.494476 451.826294,306.102997 
	C451.891296,306.307220 451.711517,306.614594 451.265930,306.996521 
z"/>
<path fill="#46D46A" opacity="1.000000" stroke="none" 
	d="
M463.265991,294.996521 
	C463.193970,294.782776 463.387787,294.494476 463.826355,294.103027 
	C463.891327,294.307220 463.711578,294.614624 463.265991,294.996521 
z"/>
<path fill="#46D46A" opacity="1.000000" stroke="none" 
	d="
M464.265991,293.996521 
	C464.193939,293.782776 464.387756,293.494476 464.826355,293.103027 
	C464.891357,293.307251 464.711578,293.614624 464.265991,293.996521 
z"/>
<path fill="#46D46A" opacity="1.000000" stroke="none" 
	d="
M449.265991,308.996552 
	C449.193939,308.782776 449.387756,308.494476 449.826355,308.103027 
	C449.891357,308.307251 449.711609,308.614624 449.265991,308.996552 
z"/>
<path fill="#46D46A" opacity="1.000000" stroke="none" 
	d="
M466.265961,291.996521 
	C466.193939,291.782745 466.387756,291.494446 466.826324,291.102997 
	C466.891327,291.307220 466.711578,291.614624 466.265961,291.996521 
z"/>
<path fill="#46D46A" opacity="1.000000" stroke="none" 
	d="
M467.265991,290.996521 
	C467.193970,290.782776 467.387756,290.494476 467.826355,290.103027 
	C467.891357,290.307251 467.711578,290.614624 467.265991,290.996521 
z"/>
<path fill="#46D46A" opacity="1.000000" stroke="none" 
	d="
M468.265961,289.996521 
	C468.193939,289.782745 468.387726,289.494446 468.826324,289.102997 
	C468.891327,289.307220 468.711548,289.614624 468.265961,289.996521 
z"/>
<path fill="#46D46A" opacity="1.000000" stroke="none" 
	d="
M469.265991,288.996552 
	C469.194000,288.782806 469.387787,288.494507 469.826355,288.103027 
	C469.891357,288.307251 469.711578,288.614624 469.265991,288.996552 
z"/>
<path fill="#46D46A" opacity="1.000000" stroke="none" 
	d="
M470.265961,287.996521 
	C470.193970,287.782776 470.387756,287.494476 470.826324,287.103027 
	C470.891327,287.307220 470.711548,287.614594 470.265961,287.996521 
z"/>
<path fill="#46D46A" opacity="1.000000" stroke="none" 
	d="
M471.265991,286.996552 
	C471.193970,286.782806 471.387787,286.494507 471.826355,286.103027 
	C471.891327,286.307220 471.711578,286.614624 471.265991,286.996552 
z"/>
<path fill="#46D46A" opacity="1.000000" stroke="none" 
	d="
M472.265991,285.996521 
	C472.193939,285.782776 472.387756,285.494476 472.826355,285.103027 
	C472.891357,285.307251 472.711578,285.614624 472.265991,285.996521 
z"/>
<path fill="#46D46A" opacity="1.000000" stroke="none" 
	d="
M473.265991,284.996521 
	C473.193970,284.782776 473.387787,284.494476 473.826355,284.103027 
	C473.891327,284.307220 473.711548,284.614594 473.265991,284.996521 
z"/>
<path fill="#46D46A" opacity="1.000000" stroke="none" 
	d="
M474.265961,283.996521 
	C474.193939,283.782776 474.387756,283.494476 474.826324,283.103027 
	C474.891357,283.307220 474.711578,283.614624 474.265961,283.996521 
z"/>
<path fill="#46D46A" opacity="1.000000" stroke="none" 
	d="
M475.265991,282.996552 
	C475.193970,282.782745 475.387726,282.494415 475.826294,282.102966 
	C475.891327,282.307281 475.711548,282.614655 475.265991,282.996552 
z"/>
<path fill="#46D46A" opacity="1.000000" stroke="none" 
	d="
M476.265991,281.996582 
	C476.193909,281.782623 476.387573,281.494202 476.826172,281.102905 
	C476.891327,281.307373 476.711548,281.614716 476.265991,281.996582 
z"/>
<path fill="#46D46A" opacity="1.000000" stroke="none" 
	d="
M477.266052,280.996582 
	C477.195038,280.782837 477.389893,280.494568 477.830322,280.103760 
	C477.894562,280.308167 477.713257,280.615112 477.266052,280.996582 
z"/>
<path fill="#46D46A" opacity="1.000000" stroke="none" 
	d="
M478.267822,280.003448 
	C478.197937,279.790527 478.397461,279.506134 478.837372,279.110840 
	C478.897583,279.310608 478.717438,279.621307 478.267822,280.003448 
z"/>
<path fill="#46D46A" opacity="1.000000" stroke="none" 
	d="
M434.265991,323.996521 
	C434.193939,323.782776 434.387756,323.494476 434.826355,323.103027 
	C434.891327,323.307220 434.711548,323.614594 434.265991,323.996521 
z"/>
<path fill="#43D66E" opacity="1.000000" stroke="none" 
	d="
M422.002502,67.733398 
	C421.793304,67.801079 421.509949,67.600487 421.112305,67.161636 
	C421.308105,67.103951 421.618225,67.284531 422.002502,67.733398 
z"/>
<path fill="#46D46A" opacity="1.000000" stroke="none" 
	d="
M420.265991,337.996521 
	C420.193970,337.782776 420.387787,337.494476 420.826355,337.103027 
	C420.891357,337.307251 420.711578,337.614624 420.265991,337.996521 
z"/>
<path fill="#46D46A" opacity="1.000000" stroke="none" 
	d="
M421.265991,336.996521 
	C421.193939,336.782776 421.387756,336.494476 421.826355,336.103027 
	C421.891327,336.307220 421.711548,336.614594 421.265991,336.996521 
z"/>
<path fill="#46D46A" opacity="1.000000" stroke="none" 
	d="
M422.265991,335.996521 
	C422.193970,335.782776 422.387787,335.494476 422.826355,335.103027 
	C422.891357,335.307220 422.711578,335.614624 422.265991,335.996521 
z"/>
<path fill="#46D46A" opacity="1.000000" stroke="none" 
	d="
M423.265991,334.996552 
	C423.194000,334.782806 423.387787,334.494507 423.826355,334.103027 
	C423.891327,334.307220 423.711548,334.614594 423.265991,334.996552 
z"/>
<path fill="#46D46A" opacity="1.000000" stroke="none" 
	d="
M424.265991,333.996521 
	C424.193939,333.782776 424.387756,333.494476 424.826355,333.103027 
	C424.891327,333.307220 424.711578,333.614624 424.265991,333.996521 
z"/>
<path fill="#46D46A" opacity="1.000000" stroke="none" 
	d="
M425.265991,332.996521 
	C425.193970,332.782776 425.387787,332.494476 425.826355,332.103027 
	C425.891357,332.307251 425.711578,332.614624 425.265991,332.996521 
z"/>
<path fill="#46D46A" opacity="1.000000" stroke="none" 
	d="
M426.265991,331.996552 
	C426.194000,331.782806 426.387787,331.494507 426.826355,331.103027 
	C426.891327,331.307220 426.711548,331.614594 426.265991,331.996552 
z"/>
<path fill="#46D46A" opacity="1.000000" stroke="none" 
	d="
M427.265991,330.996521 
	C427.193970,330.782776 427.387756,330.494476 427.826355,330.103027 
	C427.891327,330.307220 427.711578,330.614624 427.265991,330.996521 
z"/>
<path fill="#46D46A" opacity="1.000000" stroke="none" 
	d="
M428.265991,329.996521 
	C428.193939,329.782745 428.387726,329.494446 428.826355,329.102997 
	C428.891357,329.307251 428.711578,329.614624 428.265991,329.996521 
z"/>
<path fill="#46D46A" opacity="1.000000" stroke="none" 
	d="
M429.265991,328.996521 
	C429.193939,328.782776 429.387756,328.494476 429.826355,328.103027 
	C429.891327,328.307220 429.711548,328.614624 429.265991,328.996521 
z"/>
<path fill="#46D46A" opacity="1.000000" stroke="none" 
	d="
M430.265991,327.996521 
	C430.193970,327.782776 430.387787,327.494476 430.826355,327.103027 
	C430.891357,327.307251 430.711578,327.614624 430.265991,327.996521 
z"/>
<path fill="#46D46A" opacity="1.000000" stroke="none" 
	d="
M431.265930,326.996521 
	C431.193939,326.782776 431.387756,326.494476 431.826294,326.103027 
	C431.891327,326.307220 431.711548,326.614594 431.265930,326.996521 
z"/>
<path fill="#46D46A" opacity="1.000000" stroke="none" 
	d="
M432.265991,325.996521 
	C432.193970,325.782776 432.387756,325.494476 432.826355,325.103027 
	C432.891327,325.307220 432.711578,325.614624 432.265991,325.996521 
z"/>
<path fill="#46D46A" opacity="1.000000" stroke="none" 
	d="
M433.265991,324.996552 
	C433.193970,324.782806 433.387787,324.494507 433.826355,324.103027 
	C433.891357,324.307251 433.711578,324.614624 433.265991,324.996552 
z"/>
<path fill="#46D46A" opacity="1.000000" stroke="none" 
	d="
M450.265991,307.996521 
	C450.193970,307.782776 450.387787,307.494476 450.826355,307.103027 
	C450.891327,307.307220 450.711578,307.614624 450.265991,307.996521 
z"/>
<path fill="#46D46A" opacity="1.000000" stroke="none" 
	d="
M435.265991,322.996521 
	C435.193970,322.782776 435.387787,322.494476 435.826355,322.103027 
	C435.891357,322.307220 435.711578,322.614624 435.265991,322.996521 
z"/>
<path fill="#46D46A" opacity="1.000000" stroke="none" 
	d="
M436.265930,321.996521 
	C436.193939,321.782776 436.387756,321.494476 436.826294,321.103027 
	C436.891327,321.307220 436.711548,321.614594 436.265930,321.996521 
z"/>
<path fill="#46D46A" opacity="1.000000" stroke="none" 
	d="
M437.265991,320.996521 
	C437.193970,320.782776 437.387756,320.494476 437.826355,320.103027 
	C437.891327,320.307220 437.711578,320.614624 437.265991,320.996521 
z"/>
<path fill="#46D46A" opacity="1.000000" stroke="none" 
	d="
M438.265991,319.996521 
	C438.193939,319.782745 438.387726,319.494446 438.826355,319.102997 
	C438.891357,319.307251 438.711578,319.614624 438.265991,319.996521 
z"/>
<path fill="#46D46A" opacity="1.000000" stroke="none" 
	d="
M439.265991,318.996552 
	C439.193939,318.782776 439.387756,318.494476 439.826355,318.103027 
	C439.891388,318.307251 439.711609,318.614624 439.265991,318.996552 
z"/>
<path fill="#46D46A" opacity="1.000000" stroke="none" 
	d="
M440.265991,317.996521 
	C440.193970,317.782776 440.387787,317.494476 440.826355,317.103027 
	C440.891327,317.307220 440.711578,317.614624 440.265991,317.996521 
z"/>
<path fill="#46D46A" opacity="1.000000" stroke="none" 
	d="
M441.265930,316.996521 
	C441.193939,316.782776 441.387756,316.494476 441.826294,316.102997 
	C441.891296,316.307220 441.711548,316.614594 441.265930,316.996521 
z"/>
<path fill="#46D46A" opacity="1.000000" stroke="none" 
	d="
M442.265991,315.996521 
	C442.193970,315.782776 442.387756,315.494476 442.826355,315.103027 
	C442.891327,315.307220 442.711548,315.614624 442.265991,315.996521 
z"/>
<path fill="#46D46A" opacity="1.000000" stroke="none" 
	d="
M443.265991,314.996521 
	C443.193970,314.782776 443.387787,314.494476 443.826355,314.103027 
	C443.891357,314.307251 443.711578,314.614624 443.265991,314.996521 
z"/>
<path fill="#46D46A" opacity="1.000000" stroke="none" 
	d="
M444.265991,313.996552 
	C444.193939,313.782776 444.387756,313.494476 444.826355,313.103027 
	C444.891357,313.307251 444.711609,313.614624 444.265991,313.996552 
z"/>
<path fill="#46D46A" opacity="1.000000" stroke="none" 
	d="
M445.265991,312.996521 
	C445.193970,312.782776 445.387787,312.494476 445.826355,312.103027 
	C445.891327,312.307220 445.711578,312.614624 445.265991,312.996521 
z"/>
<path fill="#46D46A" opacity="1.000000" stroke="none" 
	d="
M446.265991,311.996521 
	C446.194000,311.782806 446.387787,311.494507 446.826355,311.103027 
	C446.891296,311.307220 446.711548,311.614594 446.265991,311.996521 
z"/>
<path fill="#46D46A" opacity="1.000000" stroke="none" 
	d="
M447.265991,310.996521 
	C447.193970,310.782776 447.387756,310.494476 447.826355,310.103027 
	C447.891327,310.307220 447.711548,310.614594 447.265991,310.996521 
z"/>
<path fill="#46D46A" opacity="1.000000" stroke="none" 
	d="
M448.265961,309.996521 
	C448.193939,309.782745 448.387726,309.494446 448.826324,309.102997 
	C448.891357,309.307220 448.711578,309.614624 448.265961,309.996521 
z"/>
<path fill="#43D66E" opacity="1.000000" stroke="none" 
	d="
M412.950043,58.673199 
	C412.707611,58.843128 412.341949,58.701752 411.763916,58.347073 
	C411.976654,58.209808 412.401733,58.285851 412.950043,58.673199 
z"/>
<path fill="#43D66E" opacity="1.000000" stroke="none" 
	d="
M438.002502,83.733398 
	C437.793274,83.801086 437.509949,83.600494 437.112305,83.161636 
	C437.308105,83.103943 437.618225,83.284523 438.002502,83.733398 
z"/>
<path fill="#43D66E" opacity="1.000000" stroke="none" 
	d="
M453.002502,98.733398 
	C452.793304,98.801079 452.509949,98.600479 452.112305,98.161636 
	C452.308105,98.103958 452.618225,98.284538 453.002502,98.733398 
z"/>
<path fill="#43D66E" opacity="1.000000" stroke="none" 
	d="
M452.002502,97.733398 
	C451.793304,97.801079 451.509949,97.600487 451.112305,97.161636 
	C451.308105,97.103966 451.618225,97.284546 452.002502,97.733398 
z"/>
<path fill="#43D66E" opacity="1.000000" stroke="none" 
	d="
M451.002502,96.733398 
	C450.793274,96.801094 450.509949,96.600502 450.112305,96.161636 
	C450.308105,96.103943 450.618225,96.284523 451.002502,96.733398 
z"/>
<path fill="#43D66E" opacity="1.000000" stroke="none" 
	d="
M450.002502,95.733398 
	C449.793274,95.801086 449.509949,95.600494 449.112305,95.161636 
	C449.308105,95.103951 449.618225,95.284531 450.002502,95.733398 
z"/>
<path fill="#43D66E" opacity="1.000000" stroke="none" 
	d="
M449.002502,94.733398 
	C448.793304,94.801079 448.509949,94.600487 448.112305,94.161636 
	C448.308105,94.103958 448.618225,94.284538 449.002502,94.733398 
z"/>
<path fill="#43D66E" opacity="1.000000" stroke="none" 
	d="
M448.002502,93.733398 
	C447.793274,93.801094 447.509949,93.600502 447.112305,93.161636 
	C447.308105,93.103943 447.618225,93.284523 448.002502,93.733398 
z"/>
<path fill="#43D66E" opacity="1.000000" stroke="none" 
	d="
M447.002502,92.733398 
	C446.793274,92.801086 446.509949,92.600494 446.112305,92.161636 
	C446.308105,92.103951 446.618225,92.284531 447.002502,92.733398 
z"/>
<path fill="#43D66E" opacity="1.000000" stroke="none" 
	d="
M446.002502,91.733398 
	C445.793274,91.801094 445.509949,91.600502 445.112305,91.161636 
	C445.308105,91.103958 445.618225,91.284538 446.002502,91.733398 
z"/>
<path fill="#43D66E" opacity="1.000000" stroke="none" 
	d="
M445.002502,90.733398 
	C444.793274,90.801094 444.509949,90.600502 444.112305,90.161636 
	C444.308105,90.103943 444.618225,90.284523 445.002502,90.733398 
z"/>
<path fill="#43D66E" opacity="1.000000" stroke="none" 
	d="
M444.002502,89.733398 
	C443.793274,89.801086 443.509949,89.600494 443.112305,89.161636 
	C443.308105,89.103951 443.618225,89.284531 444.002502,89.733398 
z"/>
<path fill="#43D66E" opacity="1.000000" stroke="none" 
	d="
M443.002502,88.733398 
	C442.793274,88.801094 442.509949,88.600502 442.112305,88.161636 
	C442.308105,88.103958 442.618225,88.284538 443.002502,88.733398 
z"/>
<path fill="#43D66E" opacity="1.000000" stroke="none" 
	d="
M442.002502,87.733383 
	C441.793274,87.801086 441.509949,87.600487 441.112305,87.161621 
	C441.308105,87.103935 441.618225,87.284515 442.002502,87.733383 
z"/>
<path fill="#43D66E" opacity="1.000000" stroke="none" 
	d="
M441.002502,86.733398 
	C440.793274,86.801086 440.509949,86.600494 440.112305,86.161636 
	C440.308105,86.103943 440.618225,86.284523 441.002502,86.733398 
z"/>
<path fill="#43D66E" opacity="1.000000" stroke="none" 
	d="
M440.002502,85.733398 
	C439.793274,85.801094 439.509949,85.600502 439.112305,85.161636 
	C439.308105,85.103951 439.618225,85.284531 440.002502,85.733398 
z"/>
<path fill="#43D66E" opacity="1.000000" stroke="none" 
	d="
M439.002502,84.733398 
	C438.793274,84.801094 438.509949,84.600502 438.112305,84.161636 
	C438.308105,84.103951 438.618225,84.284531 439.002502,84.733398 
z"/>
<path fill="#43D66E" opacity="1.000000" stroke="none" 
	d="
M454.002502,99.733398 
	C453.793274,99.801094 453.509949,99.600502 453.112305,99.161636 
	C453.308105,99.103951 453.618225,99.284531 454.002502,99.733398 
z"/>
<path fill="#43D66E" opacity="1.000000" stroke="none" 
	d="
M437.002502,82.733398 
	C436.793274,82.801094 436.509949,82.600502 436.112305,82.161636 
	C436.308105,82.103951 436.618225,82.284531 437.002502,82.733398 
z"/>
<path fill="#43D66E" opacity="1.000000" stroke="none" 
	d="
M436.002502,81.733398 
	C435.793274,81.801094 435.509949,81.600502 435.112305,81.161636 
	C435.308105,81.103943 435.618225,81.284523 436.002502,81.733398 
z"/>
<path fill="#43D66E" opacity="1.000000" stroke="none" 
	d="
M435.002502,80.733398 
	C434.793274,80.801086 434.509949,80.600494 434.112305,80.161636 
	C434.308105,80.103943 434.618225,80.284523 435.002502,80.733398 
z"/>
<path fill="#43D66E" opacity="1.000000" stroke="none" 
	d="
M434.002502,79.733398 
	C433.793274,79.801094 433.509949,79.600502 433.112305,79.161636 
	C433.308105,79.103951 433.618225,79.284531 434.002502,79.733398 
z"/>
<path fill="#43D66E" opacity="1.000000" stroke="none" 
	d="
M433.002502,78.733398 
	C432.793274,78.801094 432.509949,78.600502 432.112305,78.161636 
	C432.308105,78.103943 432.618225,78.284523 433.002502,78.733398 
z"/>
<path fill="#43D66E" opacity="1.000000" stroke="none" 
	d="
M432.002502,77.733398 
	C431.793274,77.801086 431.509949,77.600494 431.112305,77.161636 
	C431.308105,77.103951 431.618225,77.284531 432.002502,77.733398 
z"/>
<path fill="#43D66E" opacity="1.000000" stroke="none" 
	d="
M431.002502,76.733398 
	C430.793274,76.801094 430.509949,76.600502 430.112305,76.161636 
	C430.308105,76.103943 430.618225,76.284523 431.002502,76.733398 
z"/>
<path fill="#43D66E" opacity="1.000000" stroke="none" 
	d="
M430.002502,75.733398 
	C429.793274,75.801102 429.509949,75.600502 429.112305,75.161636 
	C429.308105,75.103951 429.618225,75.284531 430.002502,75.733398 
z"/>
<path fill="#43D66E" opacity="1.000000" stroke="none" 
	d="
M429.002502,74.733398 
	C428.793274,74.801086 428.509949,74.600494 428.112305,74.161636 
	C428.308105,74.103951 428.618225,74.284531 429.002502,74.733398 
z"/>
<path fill="#43D66E" opacity="1.000000" stroke="none" 
	d="
M428.002502,73.733398 
	C427.793274,73.801094 427.509949,73.600502 427.112305,73.161636 
	C427.308105,73.103958 427.618225,73.284538 428.002502,73.733398 
z"/>
<path fill="#43D66E" opacity="1.000000" stroke="none" 
	d="
M427.002502,72.733398 
	C426.793274,72.801102 426.509949,72.600502 426.112305,72.161636 
	C426.308105,72.103951 426.618225,72.284531 427.002502,72.733398 
z"/>
<path fill="#43D66E" opacity="1.000000" stroke="none" 
	d="
M426.002502,71.733398 
	C425.793274,71.801086 425.509949,71.600494 425.112305,71.161636 
	C425.308105,71.103943 425.618225,71.284523 426.002502,71.733398 
z"/>
<path fill="#43D66E" opacity="1.000000" stroke="none" 
	d="
M425.002502,70.733398 
	C424.793304,70.801079 424.509949,70.600487 424.112305,70.161636 
	C424.308105,70.103951 424.618225,70.284531 425.002502,70.733398 
z"/>
<path fill="#43D66E" opacity="1.000000" stroke="none" 
	d="
M424.002502,69.733406 
	C423.793274,69.801102 423.509949,69.600502 423.112305,69.161644 
	C423.308105,69.103958 423.618225,69.284538 424.002502,69.733406 
z"/>
<path fill="#43D66E" opacity="1.000000" stroke="none" 
	d="
M423.002502,68.733398 
	C422.793274,68.801086 422.509949,68.600494 422.112305,68.161636 
	C422.308105,68.103958 422.618225,68.284538 423.002502,68.733398 
z"/>
<path fill="#43D66E" opacity="1.000000" stroke="none" 
	d="
M470.002502,115.733383 
	C469.793304,115.801079 469.509949,115.600487 469.112305,115.161621 
	C469.308105,115.103943 469.618225,115.284523 470.002502,115.733383 
z"/>
<path fill="#43D66E" opacity="1.000000" stroke="none" 
	d="
M416.002258,61.733589 
	C415.793274,61.801155 415.509979,61.600506 415.112274,61.161705 
	C415.307892,61.104164 415.617950,61.284775 416.002258,61.733589 
z"/>
<path fill="#43D66E" opacity="1.000000" stroke="none" 
	d="
M417.002411,62.733490 
	C416.793304,62.801113 416.509979,62.600487 416.112305,62.161667 
	C416.308014,62.104061 416.618103,62.284649 417.002411,62.733490 
z"/>
<path fill="#43D66E" opacity="1.000000" stroke="none" 
	d="
M418.002472,63.733406 
	C417.793304,63.801094 417.509949,63.600494 417.112305,63.161652 
	C417.308075,63.103977 417.618195,63.284546 418.002472,63.733406 
z"/>
<path fill="#43D66E" opacity="1.000000" stroke="none" 
	d="
M419.002502,64.733406 
	C418.793304,64.801094 418.509949,64.600487 418.112305,64.161629 
	C418.308105,64.103951 418.618225,64.284531 419.002502,64.733406 
z"/>
<path fill="#43D66E" opacity="1.000000" stroke="none" 
	d="
M420.002502,65.733398 
	C419.793274,65.801086 419.509949,65.600494 419.112305,65.161636 
	C419.308105,65.103951 419.618225,65.284531 420.002502,65.733398 
z"/>
<path fill="#43D66E" opacity="1.000000" stroke="none" 
	d="
M479.009094,124.725761 
	C478.799591,124.797478 478.508636,124.604713 478.109253,124.168335 
	C478.309784,124.103569 478.618744,124.282425 479.009094,124.725761 
z"/>
<path fill="#43D66E" opacity="1.000000" stroke="none" 
	d="
M478.001160,123.732254 
	C477.791412,123.800385 477.508118,123.600479 477.111633,123.161957 
	C477.308197,123.103630 477.617889,123.283920 478.001160,123.732254 
z"/>
<path fill="#43D66E" opacity="1.000000" stroke="none" 
	d="
M477.002472,122.733162 
	C476.793121,122.801025 476.509583,122.600677 476.112122,122.161835 
	C476.308197,122.103882 476.618256,122.284416 477.002472,122.733162 
z"/>
<path fill="#43D66E" opacity="1.000000" stroke="none" 
	d="
M476.002472,121.733292 
	C475.793213,121.801048 475.509827,121.600548 475.112244,121.161713 
	C475.308136,121.103928 475.618225,121.284485 476.002472,121.733292 
z"/>
<path fill="#43D66E" opacity="1.000000" stroke="none" 
	d="
M475.002502,120.733353 
	C474.793274,120.801071 474.509949,120.600502 474.112305,120.161636 
	C474.308105,120.103928 474.618225,120.284500 475.002502,120.733353 
z"/>
<path fill="#43D66E" opacity="1.000000" stroke="none" 
	d="
M421.002502,66.733406 
	C420.793274,66.801102 420.509949,66.600502 420.112305,66.161644 
	C420.308105,66.103958 420.618225,66.284538 421.002502,66.733406 
z"/>
<path fill="#43D66E" opacity="1.000000" stroke="none" 
	d="
M474.002502,119.733391 
	C473.793304,119.801079 473.509949,119.600479 473.112305,119.161621 
	C473.308105,119.103943 473.618225,119.284523 474.002502,119.733391 
z"/>
<path fill="#43D66E" opacity="1.000000" stroke="none" 
	d="
M473.002502,118.733383 
	C472.793304,118.801079 472.509949,118.600487 472.112305,118.161621 
	C472.308105,118.103943 472.618225,118.284523 473.002502,118.733383 
z"/>
<path fill="#43D66E" opacity="1.000000" stroke="none" 
	d="
M472.002502,117.733398 
	C471.793274,117.801094 471.509949,117.600502 471.112305,117.161636 
	C471.308105,117.103943 471.618225,117.284523 472.002502,117.733398 
z"/>
<path fill="#43D66E" opacity="1.000000" stroke="none" 
	d="
M471.002502,116.733398 
	C470.793274,116.801086 470.509949,116.600494 470.112305,116.161636 
	C470.308105,116.103951 470.618225,116.284531 471.002502,116.733398 
z"/>
<path fill="#46D46A" opacity="1.000000" stroke="none" 
	d="
M479.269470,279.005402 
	C479.199860,278.789551 479.397888,278.500946 479.843994,278.112061 
	C479.907104,278.318756 479.722076,278.625732 479.269470,279.005402 
z"/>
<path fill="#43D66E" opacity="1.000000" stroke="none" 
	d="
M469.002502,114.733398 
	C468.793274,114.801094 468.509949,114.600502 468.112305,114.161636 
	C468.308105,114.103951 468.618225,114.284531 469.002502,114.733398 
z"/>
<path fill="#43D66E" opacity="1.000000" stroke="none" 
	d="
M468.002502,113.733398 
	C467.793274,113.801102 467.509918,113.600510 467.112305,113.161636 
	C467.308105,113.103943 467.618225,113.284523 468.002502,113.733398 
z"/>
<path fill="#43D66E" opacity="1.000000" stroke="none" 
	d="
M467.002502,112.733398 
	C466.793304,112.801079 466.509949,112.600487 466.112305,112.161636 
	C466.308105,112.103951 466.618225,112.284531 467.002502,112.733398 
z"/>
<path fill="#43D66E" opacity="1.000000" stroke="none" 
	d="
M466.002502,111.733398 
	C465.793274,111.801094 465.509949,111.600502 465.112305,111.161636 
	C465.308105,111.103951 465.618225,111.284531 466.002502,111.733398 
z"/>
<path fill="#43D66E" opacity="1.000000" stroke="none" 
	d="
M465.002502,110.733406 
	C464.793274,110.801102 464.509918,110.600510 464.112305,110.161644 
	C464.308105,110.103958 464.618225,110.284538 465.002502,110.733406 
z"/>
<path fill="#43D66E" opacity="1.000000" stroke="none" 
	d="
M464.002502,109.733398 
	C463.793304,109.801079 463.509949,109.600487 463.112305,109.161636 
	C463.308105,109.103951 463.618225,109.284531 464.002502,109.733398 
z"/>
<path fill="#43D66E" opacity="1.000000" stroke="none" 
	d="
M463.002502,108.733398 
	C462.793274,108.801094 462.509949,108.600502 462.112305,108.161636 
	C462.308105,108.103943 462.618225,108.284523 463.002502,108.733398 
z"/>
<path fill="#43D66E" opacity="1.000000" stroke="none" 
	d="
M462.002502,107.733398 
	C461.793274,107.801102 461.509918,107.600510 461.112305,107.161636 
	C461.308105,107.103951 461.618225,107.284531 462.002502,107.733398 
z"/>
<path fill="#43D66E" opacity="1.000000" stroke="none" 
	d="
M461.002502,106.733398 
	C460.793304,106.801079 460.509949,106.600487 460.112305,106.161636 
	C460.308105,106.103951 460.618225,106.284531 461.002502,106.733398 
z"/>
<path fill="#43D66E" opacity="1.000000" stroke="none" 
	d="
M460.002502,105.733406 
	C459.793274,105.801094 459.509949,105.600502 459.112305,105.161644 
	C459.308105,105.103958 459.618225,105.284538 460.002502,105.733406 
z"/>
<path fill="#43D66E" opacity="1.000000" stroke="none" 
	d="
M459.002502,104.733398 
	C458.793274,104.801102 458.509918,104.600510 458.112305,104.161636 
	C458.308105,104.103951 458.618225,104.284531 459.002502,104.733398 
z"/>
<path fill="#43D66E" opacity="1.000000" stroke="none" 
	d="
M458.002502,103.733398 
	C457.793304,103.801079 457.509949,103.600487 457.112305,103.161636 
	C457.308105,103.103958 457.618225,103.284538 458.002502,103.733398 
z"/>
<path fill="#43D66E" opacity="1.000000" stroke="none" 
	d="
M457.002502,102.733398 
	C456.793274,102.801094 456.509949,102.600502 456.112305,102.161636 
	C456.308105,102.103951 456.618225,102.284531 457.002502,102.733398 
z"/>
<path fill="#43D66E" opacity="1.000000" stroke="none" 
	d="
M456.002502,101.733406 
	C455.793274,101.801102 455.509918,101.600510 455.112305,101.161644 
	C455.308105,101.103958 455.618225,101.284538 456.002502,101.733406 
z"/>
<path fill="#43D66E" opacity="1.000000" stroke="none" 
	d="
M455.002502,100.733398 
	C454.793304,100.801079 454.509949,100.600487 454.112305,100.161636 
	C454.308105,100.103958 454.618225,100.284538 455.002502,100.733398 
z"/>
<path fill="#97D908" opacity="1.000000" stroke="none" 
	d="
M387.984833,340.454224 
	C387.792633,302.180786 387.842804,264.193970 387.622009,226.208755 
	C387.607697,223.742020 386.062988,220.753952 384.289764,218.915359 
	C374.229004,208.483582 363.855988,198.353714 353.640991,188.069656 
	C346.708099,181.089844 346.132782,171.965637 352.130005,165.826950 
	C358.470917,159.336456 367.340057,159.805725 374.690399,167.044739 
	C378.554291,170.850052 382.385864,174.688156 387.274261,179.547501 
	C387.515778,176.267899 387.749542,174.531723 387.754547,172.794907 
	C387.790100,160.465790 387.725800,148.136200 387.799561,135.807419 
	C387.856659,126.261154 392.020508,121.369568 401.730286,119.576584 
	C402.278168,122.000053 402.534607,124.483719 402.535736,126.967506 
	C402.569397,200.582291 402.577698,274.197083 402.628906,348.259521 
	C395.723480,349.893158 392.381104,344.521149 387.984833,340.454224 
z"/>
<path fill="#25C053" opacity="1.000000" stroke="none" 
	d="
M418.014404,337.698120 
	C418.000519,338.535400 417.977814,338.886627 417.925659,339.501770 
	C417.896179,339.765686 417.422363,339.860931 417.180817,339.851379 
	C416.939270,301.091553 416.939270,262.341309 416.939270,223.591080 
	C417.294708,223.589737 417.650146,223.588409 418.005585,223.587082 
	C418.005585,261.462097 418.005585,299.337097 418.014404,337.698120 
z"/>
<path fill="#25C053" opacity="1.000000" stroke="none" 
	d="
M416.957764,146.022278 
	C416.957642,141.888672 416.957642,138.249695 416.957642,134.610718 
	C417.174530,134.610291 417.391388,134.609848 417.608276,134.609406 
	C417.608276,148.937378 417.608276,163.265366 417.608276,177.593338 
	C417.391479,177.598160 417.174683,177.602966 416.957886,177.607788 
	C416.957886,167.244156 416.957886,156.880539 416.957764,146.022278 
z"/>
</svg>